<mxfile host="app.diagrams.net" modified="2023-06-14T07:30:20.413Z" agent="Mozilla/5.0 (Windows NT 10.0; Win64; x64) AppleWebKit/537.36 (KHTML, like Gecko) Chrome/114.0.0.0 Safari/537.36" etag="TVZ4Vx3Cxxwaf68h4LSD" version="21.3.8" type="device">
  <diagram name="Страница 1" id="KUgRo_iXtV5Qj04cqD4R">
    <mxGraphModel dx="1434" dy="2396" grid="1" gridSize="10" guides="1" tooltips="1" connect="1" arrows="1" fold="1" page="1" pageScale="1" pageWidth="1200" pageHeight="1600" math="0" shadow="0">
      <root>
        <mxCell id="0" />
        <mxCell id="1" parent="0" />
        <mxCell id="biO4b-36A6ZPE2o5pU_q-1" style="edgeStyle=orthogonalEdgeStyle;rounded=0;orthogonalLoop=1;jettySize=auto;html=1;" parent="1" source="biO4b-36A6ZPE2o5pU_q-2" edge="1">
          <mxGeometry relative="1" as="geometry">
            <mxPoint x="414" y="-309.9999999999998" as="targetPoint" />
          </mxGeometry>
        </mxCell>
        <mxCell id="biO4b-36A6ZPE2o5pU_q-2" value="Начало" style="ellipse;whiteSpace=wrap;html=1;" parent="1" vertex="1">
          <mxGeometry x="344" y="-410" width="140" height="50" as="geometry" />
        </mxCell>
        <mxCell id="biO4b-36A6ZPE2o5pU_q-3" value="" style="edgeStyle=orthogonalEdgeStyle;rounded=0;orthogonalLoop=1;jettySize=auto;html=1;" parent="1" source="biO4b-36A6ZPE2o5pU_q-4" target="biO4b-36A6ZPE2o5pU_q-8" edge="1">
          <mxGeometry relative="1" as="geometry">
            <Array as="points">
              <mxPoint x="414" y="-170" />
              <mxPoint x="414" y="-170" />
            </Array>
          </mxGeometry>
        </mxCell>
        <mxCell id="biO4b-36A6ZPE2o5pU_q-4" value="Подключение библиотек" style="rounded=0;whiteSpace=wrap;html=1;" parent="1" vertex="1">
          <mxGeometry x="354" y="-310" width="120" height="60" as="geometry" />
        </mxCell>
        <mxCell id="biO4b-36A6ZPE2o5pU_q-5" value="" style="endArrow=none;dashed=1;html=1;rounded=0;" parent="1" target="biO4b-36A6ZPE2o5pU_q-6" edge="1">
          <mxGeometry width="50" height="50" relative="1" as="geometry">
            <mxPoint x="474" y="-280.62" as="sourcePoint" />
            <mxPoint x="660" y="-280" as="targetPoint" />
          </mxGeometry>
        </mxCell>
        <mxCell id="biO4b-36A6ZPE2o5pU_q-6" value="#include &amp;lt;Wire.h&amp;gt;&amp;nbsp; &amp;nbsp; &amp;nbsp; &amp;nbsp;&lt;br&gt;#include &quot;PID_v1.h&quot;&amp;nbsp; &amp;nbsp; &lt;br&gt;#include &quot;gyro_accel.h&quot;" style="strokeWidth=2;html=1;shape=mxgraph.flowchart.annotation_2;align=left;labelPosition=right;pointerEvents=1;" parent="1" vertex="1">
          <mxGeometry x="530" y="-335" width="90" height="110" as="geometry" />
        </mxCell>
        <mxCell id="biO4b-36A6ZPE2o5pU_q-7" style="edgeStyle=orthogonalEdgeStyle;rounded=0;orthogonalLoop=1;jettySize=auto;html=1;entryX=0.5;entryY=0;entryDx=0;entryDy=0;" parent="1" source="biO4b-36A6ZPE2o5pU_q-8" target="biO4b-36A6ZPE2o5pU_q-12" edge="1">
          <mxGeometry relative="1" as="geometry" />
        </mxCell>
        <mxCell id="biO4b-36A6ZPE2o5pU_q-8" value="Определение глобальных переменных" style="rounded=0;whiteSpace=wrap;html=1;" parent="1" vertex="1">
          <mxGeometry x="350" y="-170" width="120" height="60" as="geometry" />
        </mxCell>
        <mxCell id="biO4b-36A6ZPE2o5pU_q-9" value="" style="endArrow=none;dashed=1;html=1;rounded=0;exitX=1;exitY=0.5;exitDx=0;exitDy=0;" parent="1" source="biO4b-36A6ZPE2o5pU_q-8" target="biO4b-36A6ZPE2o5pU_q-10" edge="1">
          <mxGeometry width="50" height="50" relative="1" as="geometry">
            <mxPoint x="474" y="-145.62" as="sourcePoint" />
            <mxPoint x="660" y="-145" as="targetPoint" />
            <Array as="points" />
          </mxGeometry>
        </mxCell>
        <mxCell id="biO4b-36A6ZPE2o5pU_q-10" value="&lt;div&gt;unsigned long t = 0;&lt;/div&gt;&lt;div&gt;float y = 0;&lt;/div&gt;&lt;div&gt;float angle_x_gyro = 0;&lt;/div&gt;&lt;div&gt;float angle_y_gyro = 0;&lt;/div&gt;&lt;div&gt;float angle_z_gyro = 0;&lt;/div&gt;&lt;div&gt;float angle_x_accel = 0;&lt;/div&gt;&lt;div&gt;float angle_y_accel = 0;&lt;/div&gt;&lt;div&gt;float angle_z_accel = 0;&lt;/div&gt;&lt;div&gt;float angle_x = 0;&lt;/div&gt;&lt;div&gt;float angle_y = 0;&lt;/div&gt;&lt;div&gt;float angle_z = 0;&lt;/div&gt;&lt;div&gt;&lt;br&gt;&lt;/div&gt;" style="strokeWidth=2;html=1;shape=mxgraph.flowchart.annotation_2;align=left;labelPosition=right;pointerEvents=1;" parent="1" vertex="1">
          <mxGeometry x="530" y="-195" width="90" height="110" as="geometry" />
        </mxCell>
        <mxCell id="biO4b-36A6ZPE2o5pU_q-11" style="edgeStyle=orthogonalEdgeStyle;rounded=0;orthogonalLoop=1;jettySize=auto;html=1;entryX=0.5;entryY=0;entryDx=0;entryDy=0;entryPerimeter=0;" parent="1" source="biO4b-36A6ZPE2o5pU_q-12" target="biO4b-36A6ZPE2o5pU_q-16" edge="1">
          <mxGeometry relative="1" as="geometry" />
        </mxCell>
        <mxCell id="biO4b-36A6ZPE2o5pU_q-12" value="setup()" style="verticalLabelPosition=middle;verticalAlign=middle;html=1;shape=process;whiteSpace=wrap;rounded=1;size=0.14;arcSize=6;glass=0;labelPosition=center;align=center;" parent="1" vertex="1">
          <mxGeometry x="359.5" y="-70" width="100" height="60" as="geometry" />
        </mxCell>
        <mxCell id="biO4b-36A6ZPE2o5pU_q-13" style="edgeStyle=orthogonalEdgeStyle;rounded=0;orthogonalLoop=1;jettySize=auto;html=1;entryX=0.5;entryY=1;entryDx=0;entryDy=0;entryPerimeter=0;" parent="1" source="biO4b-36A6ZPE2o5pU_q-14" edge="1">
          <mxGeometry relative="1" as="geometry">
            <mxPoint x="409.2500000000002" y="200" as="targetPoint" />
          </mxGeometry>
        </mxCell>
        <mxCell id="biO4b-36A6ZPE2o5pU_q-14" value="loop()" style="verticalLabelPosition=middle;verticalAlign=middle;html=1;shape=process;whiteSpace=wrap;rounded=1;size=0.14;arcSize=6;glass=0;labelPosition=center;align=center;" parent="1" vertex="1">
          <mxGeometry x="359.5" y="110" width="100" height="60" as="geometry" />
        </mxCell>
        <mxCell id="biO4b-36A6ZPE2o5pU_q-15" style="edgeStyle=orthogonalEdgeStyle;rounded=0;orthogonalLoop=1;jettySize=auto;html=1;entryX=0.5;entryY=0;entryDx=0;entryDy=0;" parent="1" source="biO4b-36A6ZPE2o5pU_q-16" target="biO4b-36A6ZPE2o5pU_q-14" edge="1">
          <mxGeometry relative="1" as="geometry" />
        </mxCell>
        <mxCell id="biO4b-36A6ZPE2o5pU_q-16" value="Вечный цикл" style="strokeWidth=2;html=1;shape=mxgraph.flowchart.loop_limit;whiteSpace=wrap;" parent="1" vertex="1">
          <mxGeometry x="360" y="20" width="100" height="60" as="geometry" />
        </mxCell>
        <mxCell id="biO4b-36A6ZPE2o5pU_q-17" style="edgeStyle=orthogonalEdgeStyle;rounded=0;orthogonalLoop=1;jettySize=auto;html=1;" parent="1" edge="1">
          <mxGeometry relative="1" as="geometry">
            <mxPoint x="409.5" y="290" as="targetPoint" />
            <mxPoint x="409.25652173913045" y="260" as="sourcePoint" />
          </mxGeometry>
        </mxCell>
        <mxCell id="biO4b-36A6ZPE2o5pU_q-18" value="Конец" style="ellipse;whiteSpace=wrap;html=1;" parent="1" vertex="1">
          <mxGeometry x="340" y="290" width="140" height="50" as="geometry" />
        </mxCell>
        <mxCell id="biO4b-36A6ZPE2o5pU_q-19" value="Вечный цикл" style="strokeWidth=2;html=1;shape=mxgraph.flowchart.loop_limit;whiteSpace=wrap;direction=west;" parent="1" vertex="1">
          <mxGeometry x="359.5" y="200" width="100" height="60" as="geometry" />
        </mxCell>
      </root>
    </mxGraphModel>
  </diagram>
</mxfile>
